<svg id="Layer_1" data-name="Layer 1" xmlns="http://www.w3.org/2000/svg" viewBox="0 0 834 200"><defs><style>.cls-1{fill:#fff;}</style></defs><path class="cls-1" d="M507.55,119.93q0,24.75,0,49.5c0,1.16,0,2.33-.11,3.49a3.79,3.79,0,0,1-3.6,3.8,1,1,0,0,1-.24.05c-11.75,0-23.5.09-35.24-.06-2.84,0-3.69-1.5-3.69-4.83,0-30.5.08-61-.08-91.49a48.59,48.59,0,0,0-1.9-13.53c-2.78-9.19-10.36-14.52-20-15a29.34,29.34,0,0,0-13.22,2c-6.92,3-10.29,8.76-11.63,15.8a57.65,57.65,0,0,0-.89,10.42q-.09,45.5,0,91c0,4.57-1.18,5.8-5.72,5.82q-15.37,0-30.75,0c-4.9,0-6.06-1.18-6.06-6,0-31,.06-62-.09-93a43.29,43.29,0,0,0-1.93-12.26c-2.5-8.23-9.83-13.35-18.66-13.75-4.71-.21-9.35.15-13.71,2.06-7.69,3.38-11.22,9.83-12.55,17.71a45.35,45.35,0,0,0-.53,7.46q0,45.12,0,90.25c0,1,0,2,0,3-.18,2.94-1.36,4.15-4.32,4.47a19,19,0,0,1-2,.06q-15.12,0-30.25,0c-5.26,0-6.44-1.06-6.45-6.21q0-50.24,0-100.49c0-11.61,2.78-22.26,10.69-31.13,7-7.88,15.94-12.79,25.91-15.76a103.08,103.08,0,0,1,43.23-3.43,67.25,67.25,0,0,1,24,8.1c5.47,3,10.63,3,16.09,0,14.76-8.07,30.58-10,47.16-8.41,11.22,1.11,22.06,3.34,32,8.73,14.76,8,23.88,20,24.27,37.17.41,18.15.09,36.32.09,54.48Z"/><path class="cls-1" d="M265.62,101.39q0,19.24,0,38.49a34,34,0,0,0,.16,3.49c.41,3.84-.39,4.86-4.16,5.12a48.91,48.91,0,0,0-29.72,12.16A66,66,0,0,1,208,174.28c-19.32,6.12-38.61,6.94-57.55-1.39-11.54-5.07-20.83-12.9-25-25.14-7.14-21.1-.68-45.44,24.15-55.75,11-4.56,22.52-6.3,34.19-7.78,10.06-1.27,20.07-2.93,30.1-4.45a13,13,0,0,0,2.14-.68c4.43-1.45,8-3.73,8.71-8.86.79-5.94-.76-10.88-6.06-14.23-4.29-2.72-9.16-3.54-14.05-3.93-8.29-.65-16.5-.31-24,3.84a17.28,17.28,0,0,0-9.05,12.48c-.15.73-.32,1.46-.46,2.2-.62,3.2-1.78,4.23-5.07,4.23-10.16,0-20.32,0-30.49,0-.91,0-1.83,0-2.75,0-3.46-.12-4.87-1.86-4.59-5.33,1.74-21.87,13.61-36,33.61-43.82a99.71,99.71,0,0,1,28.92-6.19c17.46-1.38,34.44.32,50.42,8,10.06,4.84,18.15,11.9,21.9,22.76a44.44,44.44,0,0,1,2.45,13.15C265.83,76.06,265.62,88.73,265.62,101.39Zm-42.43,4.34a6.17,6.17,0,0,0-1.12-.1c-9.33,1.59-18.69,3.05-28,4.83a152,152,0,0,0-17.15,4.17,15.91,15.91,0,0,0-10.26,8.9c-3.28,7.62.4,16.58,8.78,19.85,11,4.31,22.21,3.63,33.07-.87,5.74-2.39,10.59-6.06,13-12.12C224.65,122.34,222.41,114,223.19,105.73Z"/><path class="cls-1" d="M661.34,102.89v41.73c0,2.68-.81,3.69-3.48,3.83-12.29.68-22.84,5.34-32,13.49-8.68,7.71-19.07,12-30.26,14.56a85.21,85.21,0,0,1-30,1.82c-12.15-1.57-23.34-5.54-32.7-13.64-11.53-10-15.85-22.8-14.24-37.83,2.07-19.33,13.7-30.48,31.18-36.66,9.48-3.35,19.38-4.64,29.29-6,10.14-1.34,20.28-2.78,30.36-4.51,6.41-1.1,10.24-4.77,10.92-9.51,1.05-7.3-2.11-13.21-9-15.66a46.52,46.52,0,0,0-32.75.11c-7,2.66-10.88,8.21-12,15.65-.52,3.53-1.64,4.5-5.29,4.51q-16.25,0-32.49,0c-4.09,0-5.42-1.64-5.06-5.81,1.84-21.44,13.54-35.35,33.08-43.19,9.41-3.78,19.3-5.54,29.39-6.36,16.07-1.31,31.75.21,46.78,6.32a49.7,49.7,0,0,1,17.57,11.63c7.45,7.83,10.62,17.29,10.58,28,0,12.49,0,25,0,37.48Zm-42.76,2.57c-3.54.87-6.73,1.88-10,2.39-7.81,1.22-15.66,2.15-23.48,3.3-5.62.83-11.11,2.14-16.08,5.08-5.4,3.2-8.39,7.7-7.8,14.18s3.95,10.91,9.82,13c13.09,4.64,25.86,3.7,37.89-3.56,5.44-3.29,8.95-8.28,9.51-14.55C619,118.78,618.58,112.17,618.58,105.46Z"/><path class="cls-1" d="M113.1,70c0,15,.3,30-.1,45a76.21,76.21,0,0,1-6.89,30.49c-6.62,14.13-17.87,22.9-32.59,27.41a84.64,84.64,0,0,1-24.6,3.72c-10.41,0-20.81.22-31.22.3-4.83,0-5.41-.6-5.41-5.46q0-14.37,0-28.74c0-4.15.75-4.89,5-4.89,10.49,0,21,.08,31.49,0,7.16-.08,13.75-2.05,17.37-8.78a37.6,37.6,0,0,0,3.72-11.78,94.61,94.61,0,0,0,.84-14.69c.07-25.57,0-51.15,0-76.72,0-4.69,1.17-5.86,5.91-5.87q15.36,0,30.74,0c4.85,0,6,1.14,6,6.09V70Z"/><path class="cls-1" d="M679.11,126.59c0-15.15-.35-30.32.12-45.47.34-11.19,2.68-22.13,8-32.19,7.29-13.74,19-21.66,33.73-25.69a105.19,105.19,0,0,1,26.18-3.3c9.33-.15,18.66,0,28,0,3.92,0,4.7.8,4.71,4.66q0,15.12,0,30.24c0,3.4-.54,3.94-3.9,4-11,.09-22,0-33,.3-6.93.17-13.38,2.09-16.93,8.67a37,37,0,0,0-3.65,10.79,75.3,75.3,0,0,0-1,13.18c-.08,26.41,0,52.81,0,79.22,0,4.72-1.15,5.92-5.87,5.94q-15.49,0-31,0c-4.58,0-5.74-1.22-5.74-5.8q0-22.25,0-44.49Z"/><path class="cls-1" d="M821.19,39.49c0,9.84-7.48,17.24-17.43,17.26-10.15,0-17.94-7.41-18-17.14,0-9.92,7.68-17.36,18-17.32C813.88,22.33,821.2,29.55,821.19,39.49Zm-5.35.09c0-7.37-5.22-12.85-12.32-12.85a12.11,12.11,0,0,0-12.19,12.44c0,7.48,5.12,13.14,12,13.22S815.81,46.84,815.84,39.58Z"/><path class="cls-1" d="M807.23,41.29c1.17,2.11,2.35,4.24,3.63,6.53-2.28.84-3.94.88-5-1.37a29.76,29.76,0,0,0-2.14-3.65,10.16,10.16,0,0,0-1.59-1.55l-.83.26c0,1.43,0,2.87,0,4.3s-.08,2.49-1.9,2.54-2.11-.93-2.11-2.36c0-4.32,0-8.64,0-13,0-1.57.61-2.28,2.23-2.21,2,.08,4,0,6,0,2.45,0,4.45.88,5.23,3.39.88,2.87,0,4.81-2.73,6.44A6.31,6.31,0,0,0,807.23,41.29Zm-3.85-2.54,3.37-2.91a14.65,14.65,0,0,0-3.14-1.72c-1.34-.35-2.64.13-2.27,1.87C801.52,36.8,802.39,37.45,803.38,38.75Z"/></svg>